<?xml version="1.0" encoding="UTF-8"?>
<svg id="Capa_1" data-name="Capa 1" xmlns="http://www.w3.org/2000/svg" viewBox="0 0 1920 1080">
  <defs>
    <style>
      .cls-1 {
        fill: #fff;
      }
    </style>
  </defs>
  <g>
    <path class="cls-1" d="m861.09,613.98h-36.15l-6.09,12.27h-19.53l33.93-64.84h19.54l33.93,64.84h-19.54l-6.08-12.27Zm-29.88-12.64h23.7l-11.8-23.88-11.9,23.88Z"/>
    <path class="cls-1" d="m970.2,583.54c0,3.24-.48,6.22-1.42,8.94s-2.46,5.07-4.55,7.03c-2.1,1.96-4.81,3.5-8.14,4.6-3.34,1.1-7.39,1.65-12.18,1.65h-29.07v20.48h-17.52v-64.84h46.58c4.78,0,8.83.54,12.18,1.62,3.33,1.09,6.04,2.61,8.14,4.58,2.09,1.96,3.6,4.3,4.55,7.01s1.42,5.68,1.42,8.92Zm-17.7.28c0-1.51-.21-2.81-.64-3.89-.42-1.09-1.13-1.98-2.1-2.67s-2.24-1.2-3.82-1.53c-1.57-.33-3.51-.5-5.8-.5h-25.29v16.71h25.29c2.29,0,4.23-.14,5.8-.41,1.58-.27,2.85-.72,3.82-1.36s1.68-1.49,2.1-2.53c.43-1.04.64-2.31.64-3.82Z"/>
    <path class="cls-1" d="m1068.59,593.88c0,5.57-1.02,10.48-3.06,14.75-2.05,4.26-4.97,7.83-8.78,10.68-3.81,2.86-8.42,5.03-13.86,6.49-5.42,1.46-11.52,2.2-18.28,2.2s-12.87-.74-18.33-2.2c-5.47-1.46-10.11-3.63-13.95-6.49-3.83-2.86-6.79-6.42-8.87-10.68-2.08-4.27-3.12-9.18-3.12-14.75s1.04-10.48,3.12-14.75c2.08-4.26,5.03-7.82,8.87-10.68,3.84-2.86,8.49-5.03,13.95-6.49,5.46-1.46,11.56-2.2,18.33-2.2s12.86.74,18.28,2.2c5.43,1.46,10.05,3.63,13.86,6.49s6.73,6.42,8.78,10.68c2.05,4.27,3.06,9.18,3.06,14.75Zm-17.7,0c0-2.42-.38-4.84-1.15-7.24-.78-2.41-2.14-4.57-4.11-6.49-1.96-1.92-4.64-3.47-8.04-4.67s-7.72-1.8-12.98-1.8c-3.52,0-6.62.28-9.3.83s-4.98,1.32-6.93,2.29c-1.96.97-3.59,2.12-4.91,3.42s-2.37,2.71-3.16,4.2-1.34,3.05-1.68,4.67c-.32,1.62-.49,3.22-.49,4.79s.16,3.23.49,4.86c.34,1.63.89,3.2,1.68,4.7s1.84,2.88,3.16,4.17c1.32,1.29,2.96,2.41,4.91,3.38,1.95.96,4.25,1.71,6.93,2.26s5.78.83,9.3.83c5.26,0,9.58-.6,12.98-1.8,3.4-1.2,6.08-2.75,8.04-4.67,1.97-1.92,3.33-4.08,4.11-6.49.77-2.4,1.15-4.82,1.15-7.24Z"/>
    <path class="cls-1" d="m1102.05,598.5c0,2.71.25,4.92.75,6.63.51,1.72,1.32,3.08,2.46,4.09s2.6,1.69,4.42,2.07c1.81.38,4.03.57,6.67.57h33.22v14.39h-36.81c-5.1,0-9.43-.42-13-1.25s-6.48-2.12-8.76-3.87c-2.26-1.75-3.91-3.96-4.93-6.63-1.03-2.67-1.54-5.85-1.54-9.53v-43.55h17.52v37.09Z"/>
    <path class="cls-1" d="m1247.48,593.88c0,5.57-1.02,10.48-3.06,14.75-2.05,4.26-4.97,7.83-8.78,10.68-3.81,2.86-8.42,5.03-13.86,6.49-5.42,1.46-11.52,2.2-18.28,2.2s-12.87-.74-18.33-2.2c-5.47-1.46-10.11-3.63-13.95-6.49-3.83-2.86-6.79-6.42-8.87-10.68-2.08-4.27-3.12-9.18-3.12-14.75s1.04-10.48,3.12-14.75c2.08-4.26,5.03-7.82,8.87-10.68,3.84-2.86,8.49-5.03,13.95-6.49,5.46-1.46,11.56-2.2,18.33-2.2s12.86.74,18.28,2.2c5.43,1.46,10.05,3.63,13.86,6.49,3.81,2.86,6.73,6.42,8.78,10.68,2.05,4.27,3.06,9.18,3.06,14.75Zm-17.7,0c0-2.42-.38-4.84-1.15-7.24-.78-2.41-2.14-4.57-4.11-6.49-1.96-1.92-4.64-3.47-8.04-4.67-3.4-1.2-7.72-1.8-12.98-1.8-3.52,0-6.62.28-9.3.83s-4.98,1.32-6.93,2.29c-1.96.97-3.59,2.12-4.91,3.42s-2.37,2.71-3.16,4.2-1.34,3.05-1.68,4.67c-.32,1.62-.49,3.22-.49,4.79s.16,3.23.49,4.86c.34,1.63.89,3.2,1.68,4.7s1.84,2.88,3.16,4.17c1.32,1.29,2.96,2.41,4.91,3.38,1.95.96,4.25,1.71,6.93,2.26s5.78.83,9.3.83c5.26,0,9.58-.6,12.98-1.8s6.08-2.75,8.04-4.67c1.97-1.92,3.33-4.08,4.11-6.49.77-2.4,1.15-4.82,1.15-7.24Z"/>
    <path class="cls-1" d="m1379.19,593.79c0,4.15-.45,7.84-1.36,11.06-.92,3.23-2.2,6.03-3.85,8.42-1.65,2.39-3.63,4.42-5.94,6.09s-4.88,3-7.72,4.01c-2.83,1.01-5.88,1.74-9.15,2.2-3.28.45-6.69.68-10.24.68h-41.16v-64.84h41.06c3.55,0,6.97.23,10.24.68s6.33,1.19,9.18,2.19c2.85,1.01,5.43,2.34,7.76,3.99,2.33,1.65,4.32,3.68,5.96,6.09,1.66,2.41,2.93,5.21,3.85,8.42.91,3.21,1.36,6.87,1.36,11Zm-17.64,0c0-3.12-.4-5.82-1.21-8.12-.8-2.29-2.09-4.19-3.86-5.69-1.78-1.49-4.1-2.61-6.96-3.35-2.87-.74-6.35-1.1-10.48-1.1h-21.75v36.62h21.75c4.12,0,7.61-.37,10.48-1.11,2.86-.74,5.19-1.87,6.96-3.39s3.06-3.44,3.86-5.74c.81-2.29,1.21-5,1.21-8.11Z"/>
    <path class="cls-1" d="m1395.14,626.25v-64.84h65.64v13.82h-47.66v10.71h45.21v13.83h-45.21v12.64h48.32v13.83h-66.3Z"/>
    <path class="cls-1" d="m1521.23,592.98l30.76,33.27h-21l-20.29-21.85-20.2,21.85h-20.96l30.72-33.27-29.21-31.57h21l18.64,20.29,18.73-20.29h21l-29.21,31.57Z"/>
  </g>
  <g>
    <path class="cls-1" d="m427.21,514.14c-27.03,28.15-43.08,63.05-48.07,99.17,0,.03-.01.07-.01.1-.01-.03-.03-.05-.04-.08-4.54-9.43-8.2-19.18-11.08-29.16,9.31-32.25,26.94-62.41,52.54-87.01,1.89,5.76,3.99,11.41,6.65,16.96,0,.01.01.01.01.02Z"/>
    <path class="cls-1" d="m615.94,584.16c-14.63,6.76-30.92,11.42-48.66,13.3-6.98.67-13.97.67-20.95,0-17.85-1.88-34.14-6.54-48.88-13.3h-.11c-38.24,17.63-65.07,49.88-76.71,87.02,20.06,19.29,44.89,35.25,74.27,46.33,39.57,14.97,83.8,14.97,123.48,0,29.49-11.08,54.32-27.05,74.38-46.45-11.75-37.13-38.69-69.39-76.82-86.91Zm-108.08,74.71c-5.88,5.99-9.53,14.19-9.53,23.17,0-8.98-3.66-17.18-9.53-23.17-5.88-5.87-14.08-9.53-23.06-9.53,17.96,0,32.59-14.52,32.59-32.59,0,9.09,3.66,17.18,9.53,23.06,5.88,5.87,14.08,9.53,23.06,9.53-8.98,0-17.18,3.66-23.06,9.53Zm116.72,0c-5.88,5.99-9.53,14.19-9.53,23.17,0-8.98-3.66-17.18-9.53-23.17-5.88-5.87-13.97-9.53-23.05-9.53,18.07,0,32.59-14.52,32.59-32.59,0,9.09,3.66,17.18,9.53,23.06,5.99,5.87,14.19,9.53,23.17,9.53-8.98,0-17.18,3.66-23.17,9.53Z"/>
    <path class="cls-1" d="m745.23,583.95c-2.87,9.95-6.41,19.57-10.94,28.96-5-36.12-21.07-70.9-48.1-98.92-.01-.01-.02-.02-.02-.03,2.54-5.53,4.74-11.16,6.52-17.03,25.6,24.61,43.34,54.76,52.54,87.02Z"/>
    <path class="cls-1" d="m566.92,403.36l-2.44,55.65c-5.32-.22-10.42-.22-15.63,0l-2.33-55.65c3.1,1.33,6.65,2,10.2,2s7.09-.67,10.2-2Z"/>
    <path class="cls-1" d="m583.76,378.31c0,11.31-6.98,21.06-16.85,25.05-3.1,1.33-6.65,2-10.2,2s-7.09-.67-10.2-2c-9.86-3.99-16.85-13.75-16.85-25.05,0-14.97,12.08-27.05,27.05-27.05s27.05,12.08,27.05,27.05Z"/>
    <path class="cls-1" d="m727.98,691.9c-2.11,6.98-12.42,6.1-13.52-1-1.66-11.53-4.66-22.83-8.76-33.7-9.87-25.83-26.72-49.55-50.21-68.39-6.87-5.54-14.19-10.31-21.73-14.52-47.55-26.27-106.42-26.16-153.97.11-7.54,4.1-14.85,8.87-21.73,14.41-23.61,18.84-40.46,42.57-50.21,68.5-4.21,10.86-7.09,22.17-8.76,33.59-1.11,7.2-11.42,7.98-13.52,1.11-7.98-25.5-10.09-52.43-6.43-78.7,4.99-36.14,21.06-71.05,48.11-99.21,5.99-6.43,12.75-12.53,20.06-18.18,29.71-23.06,65.51-35.25,101.54-36.91,5.21-.22,10.31-.22,15.63,0,36.14,1.55,72.05,13.86,101.76,36.91,7.2,5.65,13.97,11.64,19.95,18.07,27.05,28.05,43.12,62.85,48.11,98.99,3.77,26.27,1.66,53.32-6.32,78.92Z"/>
  </g>
</svg>